/* XPM */
static char *c384c9e38ae8416fd651202ceb19f6a40NkqgSRBnFjEj3SH[] = {
/* columns rows colors chars-per-pixel */
"30 30 227 2 ",
"   c #050115",
".  c #05011C",
"X  c #090019",
"o  c #301D18",
"O  c #39251D",
"+  c #37281C",
"@  c #3F331D",
"#  c #060122",
"$  c #0A0128",
"%  c #10002E",
"&  c #0D0233",
"*  c #0D0338",
"=  c #130337",
"-  c #3C2C24",
";  c #352C23",
":  c #3A3229",
">  c #3F3C35",
",  c #442E1E",
"<  c #4E321E",
"1  c #432D23",
"2  c #4B2F25",
"3  c #482C2B",
"4  c #453324",
"5  c #4B3224",
"6  c #44342B",
"7  c #4C332B",
"8  c #4C3A2B",
"9  c #4D3A27",
"0  c #51362C",
"q  c #523B2D",
"w  c #563A25",
"e  c #4B2F35",
"r  c #4C3434",
"t  c #443B34",
"y  c #4D3A33",
"u  c #473635",
"i  c #543B33",
"p  c #513D3A",
"a  c #523436",
"s  c #49433B",
"d  c #544535",
"f  c #5E422C",
"g  c #16044A",
"h  c #1A034C",
"j  c #170547",
"k  c #1A0555",
"l  c #1A055A",
"z  c #21045A",
"x  c #1C0763",
"c  c #1E0571",
"v  c #26046E",
"b  c #260769",
"n  c #250975",
"m  c #290876",
"M  c #320973",
"N  c #513D48",
"B  c #4E4441",
"V  c #564943",
"C  c #5A4846",
"Z  c #5E4859",
"A  c #5F5355",
"S  c #674E5C",
"D  c #675C59",
"F  c #6D645E",
"G  c #76656A",
"H  c #736A6B",
"J  c #8B7C7C",
"K  c #1F0785",
"L  c #290B85",
"P  c #2D0A8C",
"I  c #2E0786",
"U  c #300D8E",
"Y  c #380987",
"T  c #2B0B94",
"R  c #370D96",
"E  c #2D129A",
"W  c #3A1194",
"Q  c #331197",
"!  c #34128B",
"~  c #3B16AC",
"^  c #3715A9",
"/  c #3C17B5",
"(  c #2F11A5",
")  c #3E27B4",
"_  c #49139A",
"`  c #490C98",
"'  c #4915A9",
"]  c #491BB7",
"[  c #5D1BBD",
"{  c #551AB4",
"}  c #5210A5",
"|  c #4725BB",
" . c #5C24BB",
".. c #4730BC",
"X. c #6324BC",
"o. c #5040BA",
"O. c #3C1CC3",
"+. c #401CC9",
"@. c #5C1AC3",
"#. c #581BC1",
"$. c #681EC9",
"%. c #492DC9",
"&. c #5C27C5",
"*. c #4E32C8",
"=. c #5C3DCD",
"-. c #5736C7",
";. c #4E32DE",
":. c #6625C5",
">. c #6737C6",
",. c #7339C4",
"<. c #6828D5",
"1. c #6A38D9",
"2. c #732ECC",
"3. c #5D45D5",
"4. c #6846CC",
"5. c #7848CB",
"6. c #7A44D5",
"7. c #6A55D8",
"8. c #7654D9",
"9. c #6E53C9",
"0. c #7867DC",
"q. c #6B55EB",
"w. c #7A67E6",
"e. c #897785",
"r. c #803AD0",
"t. c #803DE4",
"y. c #895BCD",
"u. c #8856D7",
"i. c #8D51D9",
"p. c #8573CA",
"a. c #8A64D7",
"s. c #966EDF",
"d. c #8678DE",
"f. c #9F79DE",
"g. c #9876C9",
"h. c #A97ED7",
"j. c #9259EE",
"k. c #8876E5",
"l. c #9A79E8",
"z. c #8F6CF0",
"x. c #A575E6",
"c. c #A26CE4",
"v. c #98868A",
"b. c #9C9394",
"n. c #9E9F9A",
"m. c #92888B",
"M. c #A39A91",
"N. c #A7A09E",
"B. c #A99BA5",
"V. c #A598B4",
"C. c #B4A6AE",
"Z. c #B4A6B7",
"A. c #BAB4B6",
"S. c #AFA3B1",
"D. c #C3BCBC",
"F. c #C2C1BF",
"G. c #9992D9",
"H. c #9683DF",
"J. c #A897D1",
"K. c #BCA8C7",
"L. c #BDB3C1",
"P. c #ACA6DC",
"I. c #BDA9D3",
"U. c #BDBEDD",
"Y. c #9889E5",
"T. c #9E8FF8",
"R. c #AA88E8",
"E. c #B28AE9",
"W. c #A798E8",
"Q. c #B599E8",
"!. c #A088F5",
"~. c #BB98F2",
"^. c #A390F9",
"/. c #ADA5E7",
"(. c #B6A9EB",
"). c #BBB4E6",
"_. c #BBAAF0",
"`. c #C4B8D6",
"'. c #C4B1C6",
"]. c #C19EF8",
"[. c #C0A9EA",
"{. c #C5B5EC",
"}. c #C8BBE8",
"|. c #D3B9EA",
" X c #C8A9F5",
".X c #CAB3F4",
"XX c #D4BDF5",
"oX c #D6BBFA",
"OX c #D3AEFB",
"+X c #CDC5CA",
"@X c #CBC5D7",
"#X c #D4CCD3",
"$X c #D5C9DC",
"%X c #D8D5D4",
"&X c #D3CACD",
"*X c #E2DBDA",
"=X c #ECE4D5",
"-X c #C8C5EB",
";X c #D3CBED",
":X c #D6C8E7",
">X c #DBD8E9",
",X c #CEC4F0",
"<X c #CAC7F4",
"1X c #D8C9F8",
"2X c #D9D2F2",
"3X c #DDDBF3",
"4X c #D8D2FA",
"5X c #E4DCED",
"6X c #E3D5E6",
"7X c #E3CAFA",
"8X c #E3DDF3",
"9X c #E4D8F6",
"0X c #E1C7EE",
"qX c #DFE2F3",
"wX c #EDE9EB",
"eX c #E4E3E9",
"rX c #F2EDED",
"tX c #E3E3F4",
"yX c #EDECF4",
"uX c #ECECF9",
"iX c #E5E7F5",
"pX c #F2EDFD",
"aX c #ECF2F9",
"sX c #F4F3F5",
"dX c #F3F4FB",
"fX c #FAF7FE",
"gX c #F8F1EB",
/* pixels */
": : - 6 8 5 7 7 2 5 5 7 r e a y y y 1 , < < w f w 5 , q y i ",
"; : 6 6 q 2 3 0 7 1 4 y N Z S S S S C p 8 5 9 w 5 5 7 7 i i ",
"8 @ 1 4 5 4 3 e u N H V.`.I.K.K.|.7X0X'.e.C y 6 8 5 0 7 0 0 ",
", 4 4 5 4 4 e Z $X`.`.).(.Q.G.g.g.h. X7X7X`.b.D y 6 i 7 i 0 ",
", , 1 1 y y G `.)./.W.Y.Y.^.!.l.u.,.y.R. X1X:XS.J C y i i q ",
"4 + 6 p J B.@X,X/.Y.d.0.7.7.8.j.j.2.:.,.a.~.XX:XS.B.v.p 7 6 ",
"; t J A.6X$X,XW.d.w.w.q.=.=.-.>.t.2.:.[ >.y.E.oX`.'.+XD.V - ",
"t b.%X5X9X|.Q.H.0.3.*.| ~ ~ ~ { [ $.$.@.:.,.y.Q.{.V.L.rX%Xp ",
"s %XpX9XXX.XR.k.7.*./ ^ Q P P W _ ` { [ [ :.u.f.(.}.@X+X&XN.",
"A.yX8X1X.XE.s.8.>.| ^ T m n v M v v W ' { &.6.a.W.XX;X>XeX#X",
"sXyX;XXX].s.u.>.] ^ U n l k h h h k m U R ] -.8.l._.,X8XuXdX",
"sX5X2XoXR.u.6. .R I m l j = % $ & * l c L ( *.8.k.W.{.2XuXdX",
"sX5X1X Xa.4.>.' R n l g & $ . . . $ j x K E | 3.w.Y._.;XuXdX",
"dX8X1X~.5.&.#.' W b k * #         # * k n E ^ | 7.d.(.-XtXdX",
"pX8X1XW.>.] ] ] ! b g & .         . % g v U ^ | 7.k.W.-X2XyX",
"yX3X1XY.../ +./ L x h & .         # = h v P ^ %.w.k.G.<X3XdX",
"sX8X<XY...O.+.O.Q c z = X       . # = k n T ^ *.7.d./.<X2XdX",
"wXiX4XY.) %.;.O.( L b j % # . . # & g x L ( | =.4.Y./.<X3XuX",
"*X5X4XW.o.3.q.%.~ Q m l g * & & * j l m W ~ | =.k.W.).U.iXfX",
"&X8X4X(.9.w.q.%.) T L n x k k g h z v R ' ] 1.8.!.W.P.-XuXdX",
"b.5X9X{.p.k.z.=.*.~ R R Y m m v M Y Y ' :.1.j.z.d.G.).iXyXF.",
"B C.$X;XJ.Y.T.w.4.-.] ' ' _ I Y Y _ { #.<.<.6.8.p.P.2XiXrXD ",
"+ F n.$X}./.W.Y.a.8.>. .X.X.} } } { @.@.@.&.>.9.W.4X8XfX*Xs ",
"4 6 F A.:X}.).(.Y.l.s.u.6.i.r.2.2.:.:.&. .,.a.~.7X9X$X#XV - ",
"@ + 6 m.+X:X;X{.Q.R.f.c.c.a.i.j.i.6.5.5.y.R..X7X$XB.v.G u - ",
"4 4 + t b.#X>X2X}.[.[.Q.E.~.R.x.x.x.x.E..X1X6XC.G p r y 3 3 ",
"- + - : B b.#X5X5X:X;X,X{.{..X X XOXoX1X:X'.D C d 2 3 3 r e ",
"O - + + ; t N.%XwXeX>X3X3X;X2X;XXX7X:XZ.A s d 9 9 5 0 7 7 1 ",
"O + 1 1 - - ; H D.eXyXiXtXqXiXtX@XL.B.F d d 8 q 0 2 2 2 7 4 ",
"o o - - 6 + - : > n.sXdXaXaXiXdXfXwXgX=X=XM.8 1 i 7 2 7 5 1 "
};
