/* XPM */
static char *result[] = {
/* columns rows colors chars-per-pixel */
"30 30 178 2 ",
"   c #2A1C0F",
".  c #302215",
"X  c #322417",
"o  c #35271A",
"O  c #392618",
"+  c #38261A",
"@  c #39271B",
"#  c #3A261B",
"$  c #3B271C",
"%  c #3F271D",
"&  c #3B281A",
"*  c #39291C",
"=  c #3A281C",
"-  c #3B291D",
";  c #382A1D",
":  c #3A2A1D",
">  c #392B1E",
",  c #3B2B1E",
"<  c #3C281D",
"1  c #3E281D",
"2  c #3E2B1D",
"3  c #3D291E",
"4  c #3F281E",
"5  c #3C2A1E",
"6  c #3E2A1F",
"7  c #3F2C1E",
"8  c #3F2B20",
"9  c #3B2D20",
"0  c #3D2D20",
"q  c #3E2C20",
"w  c #3F2D21",
"e  c #3C2E21",
"r  c #3E2E21",
"t  c #3D2F22",
"y  c #3F2F22",
"u  c #3E3023",
"i  c #40281C",
"p  c #43281D",
"a  c #40281E",
"s  c #412B1E",
"d  c #402A1F",
"f  c #422A1E",
"g  c #432B1F",
"h  c #44291E",
"j  c #47291F",
"k  c #452A1F",
"l  c #402D1F",
"z  c #412B20",
"x  c #462B20",
"c  c #402C21",
"v  c #432D20",
"b  c #412E20",
"n  c #422F21",
"m  c #412D22",
"M  c #402C23",
"N  c #432D22",
"B  c #402E22",
"V  c #412F23",
"C  c #422E23",
"Z  c #442C20",
"A  c #452D21",
"S  c #472C21",
"D  c #452D23",
"F  c #452F22",
"G  c #442E23",
"H  c #462E22",
"J  c #472F23",
"K  c #412D24",
"L  c #432F24",
"P  c #432F26",
"I  c #452F24",
"U  c #462F27",
"Y  c #482D22",
"T  c #492D22",
"R  c #4B2D23",
"E  c #492E23",
"W  c #4A2F24",
"Q  c #4B2F24",
"!  c #4C2E24",
"~  c #443123",
"^  c #463023",
"/  c #413124",
"(  c #423024",
")  c #433125",
"_  c #423225",
"`  c #433326",
"'  c #443025",
"]  c #463025",
"[  c #463325",
"{  c #453126",
"}  c #443027",
"|  c #473026",
" . c #463227",
".. c #443427",
"X. c #473426",
"o. c #483024",
"O. c #493125",
"+. c #4B3025",
"@. c #483225",
"#. c #483026",
"$. c #493127",
"%. c #493326",
"&. c #483227",
"*. c #4A3226",
"=. c #4B3327",
"-. c #4C3025",
";. c #4C3126",
":. c #4D3126",
">. c #4D3227",
",. c #483527",
"<. c #4A3427",
"1. c #453128",
"2. c #473028",
"3. c #473328",
"4. c #483129",
"5. c #493328",
"6. c #4A3228",
"7. c #4B3329",
"8. c #49322A",
"9. c #4A332B",
"0. c #4E3328",
"q. c #4F3328",
"w. c #483429",
"e. c #4B3528",
"r. c #4A3429",
"t. c #49352A",
"y. c #4B352A",
"u. c #4A362B",
"i. c #4C3428",
"p. c #4D3529",
"a. c #4F3429",
"s. c #4C3629",
"d. c #4C342A",
"f. c #4D352B",
"g. c #4C362B",
"h. c #4E362A",
"j. c #4F372B",
"k. c #4B342C",
"l. c #4F372D",
"z. c #4E382D",
"x. c #513329",
"c. c #503429",
"v. c #50352A",
"b. c #51352A",
"n. c #52342A",
"m. c #51362B",
"M. c #52362B",
"N. c #52372C",
"B. c #53372C",
"V. c #54362C",
"C. c #55372D",
"Z. c #53392B",
"A. c #50382C",
"S. c #51392D",
"D. c #53382D",
"F. c #50382E",
"G. c #523A2E",
"H. c #533B2F",
"J. c #54382D",
"K. c #543A2C",
"L. c #54392E",
"P. c #553A2F",
"I. c #563C2F",
"U. c #523A30",
"Y. c #563B30",
"T. c #543C30",
"R. c #553D31",
"E. c #573D30",
"W. c #573C31",
"Q. c #573F33",
"!. c #583D32",
"~. c #593E33",
"^. c #5A3F34",
"/. c #584034",
"(. c #5B4035",
"). c #5C4136",
"_. c #5E4338",
"`. c #5F4439",
/* pixels */
"y w ( u.z.r.6.d.+.;.0.v.m.m.m.m.a.a.>.+.W 0.W.`.i.O.o.=.G./.",
"/ B ( t.g.&.#.7.E W +.>.>.0.>.>.v.m.v.0.+.;.v.L.h.i.*.i.h.j.",
"` V V 3.5.] #.7.+.;.;.>.>.>.;.;.a.v.m.v.>.;.;.0.j.h.h.j.h.=.",
"..V V  .5.&.6.l.m.m.N.N.N.m.v.a.a.a.a.a.a.a.v.m.j.j.A.S.G.S.",
"` B V 3.y.r.f.U.D.D.L.L.L.D.N.m.P.D.v.0.a.m.D.L.j.j.A.A.S.T.",
"_ B V 3.y.5.d.F.a.v.m.m.N.m.v.v.).W.N.a.a.v.m.m.j.j.h.i.=.i.",
"/ B ( 3.r.I D #.;.>.0.a.v.v.v.v.!.L.m.v.m.N.v.0.i.p.h.=.J Z ",
"/ B ( 3.&.z % a +.;.0.v.m.m.N.m.0.>.0.m.P.Y.N.0.o.=.h.i.J g ",
"3 m  . .' L  .t.F <.S.G.N.c.q.x.k x W m.W.P.>.x i.=.*.O.J H ",
"3 c L ' ' ' { 3.^ e.S.T.L.B.B.C.W +.;.;.;.>.0.a.*.=.=.i.i.p.",
"6 6 8 m ' { { L @.s.S.G.D.M.b.n.W 0.m.a.W E >.m.=.=.i.p.h.j.",
"6 < < 8 '  .' c <.e.h.h.a.:.Q R E a.P.W.L.a.+.W h.h.p.p.i.i.",
"6 < $ 6 L  .L c @.@.*.=.0.q.:.! m.m.D.Y.!.P.0.E A.j.j.h.p.p.",
"3 3 3 c L ' L C F F o.=.m.J.J.V.^.L.0.0.N.P.D.v.A.A.A.A.S.S.",
"$ 6 m C C C L { @.^ J *.v.B.M.x.Y.D.a.0.0.v.N.D.S.S.S.A.A.A.",
"# 8 L ' C m ' 3.s.%.J J +.-.T j Y 0.L.P.m.>.>.a.T.H.S.h.i.O.",
"L  .t.t. .{  .t.i o.i.*.J J J Z E 0.L.W.P.m.0.>.G.S.j.p.=.o.",
"$ 8 L ' ' '  .t.f O.h.=.o.O.o.H +.0.D.P.P.Y.!.^.j.j.p.i.=.*.",
"$ 6 m C L L {  .A =.j.p.=.i.=.J a.v.m.v.m.L.~._.R.H.S.j.h.h.",
"C L ' ' ' L C C J p.A.h.p.j.p.o.m.m.v.>.+.+.a.N.Q.R.S.h.i.i.",
"L L L ' ' L m c o.p.j.p.h.A.p.J a.m.m.a.+.E Y E h.i.=.O.O.O.",
"6 3 6 c C ' C c J =.i.=.p.j.=.A +.a.D.D.m.0.>.>.O.O.*.i.h.j.",
"c 6 6 c ' { L c H o.O.o.=.h.O.f +.a.D.L.D.N.N.N.O.=.p.j.j.h.",
"w. .' '  . .C 6 Z J J J *.i.o.i >.v.N.N.v.v.m.N.J o.*.*.J f ",
"t 9 , 5 q C I ] l [ X.v f E E k m.L.Y.P.N.v.m.L.E.a.E #.U M ",
"u e : = - 8 G | n X.,.F A +.+.S ;.v.L.Y.P.L.Y.!.I.0.E #.2.K ",
"u 9 * + + < N ] ~ X.X.^ o.>.>.W x +.m.P.W.!.~.(.K.>.E #.4.P ",
"; > , = @ $ d N ~ ~ ~ ^ O.>.>.W p S >.D.Y.W.!.!.Z.;.E $.8.} ",
". o 0 B q 3 1 4 n 7 2 v o.+.W W h x W a.N.D.N.m.Z.;.W 7.9.1.",
"  X r ) ( 8 4 4 b & O s o.W Y E Y S Y W 0.a.0.>.Z.0.+.d.k.1."
};
