/* XPM */
static char *a4894477172d4d5a8a339f60f7c238a6Hp4Jkdjfo6REwUFO[] = {
/* columns rows colors chars-per-pixel */
"30 30 206 2 ",
"   c #2D1B0D",
".  c #3C1E1C",
"X  c #3E260C",
"o  c #362719",
"O  c #3C271B",
"+  c #3C2A1D",
"@  c #342417",
"#  c #3D341E",
"$  c #3E2C22",
"%  c #3A2825",
"&  c #3E3122",
"*  c #3A3128",
"=  c #571D19",
"-  c #4A251C",
";  c #432B1E",
":  c #4B2C1C",
">  c #4E2A12",
",  c #532B1C",
"<  c #582419",
"1  c #45301F",
"2  c #52311E",
"3  c #442E24",
"4  c #4B2D23",
"5  c #472E2B",
"6  c #4B2D2A",
"7  c #532C23",
"8  c #5C2D23",
"9  c #5C2B29",
"0  c #572B28",
"q  c #443224",
"w  c #4B3325",
"e  c #433A26",
"r  c #4B3A25",
"t  c #453229",
"y  c #4C342A",
"u  c #463C2A",
"i  c #4C3A2C",
"p  c #523224",
"a  c #5A3325",
"s  c #53342B",
"d  c #5A352C",
"f  c #533A2D",
"g  c #5A3A2E",
"h  c #533825",
"j  c #4D3430",
"k  c #4D3C32",
"l  c #533431",
"z  c #533C31",
"x  c #5C3D32",
"c  c #612C25",
"v  c #6D2C26",
"b  c #692A25",
"n  c #752B27",
"m  c #6A3125",
"M  c #64352B",
"N  c #6B352C",
"B  c #633C2D",
"V  c #633126",
"C  c #75342E",
"Z  c #723A2E",
"A  c #7A392E",
"S  c #79332B",
"D  c #613D34",
"F  c #663C37",
"G  c #733A33",
"H  c #7A3A31",
"J  c #723532",
"K  c #5B402F",
"L  c #554133",
"P  c #5B4235",
"I  c #5F423A",
"U  c #644335",
"Y  c #6B4233",
"T  c #68433B",
"R  c #6C493D",
"E  c #64433A",
"W  c #77463E",
"Q  c #6C4A43",
"!  c #7F4F45",
"~  c #7D5148",
"^  c #920201",
"/  c #950F0B",
"(  c #9F1815",
")  c #AD0B09",
"_  c #BB0C0B",
"`  c #B60A07",
"'  c #BA110C",
"]  c #B90A14",
"[  c #A51614",
"{  c #AD1A1C",
"}  c #A8191C",
"|  c #BF1117",
" . c #B71A1B",
".. c #962118",
"X. c #BD1F25",
"o. c #9C2425",
"O. c #80352F",
"+. c #853939",
"@. c #9D3535",
"#. c #9F3D3C",
"$. c #AF2C24",
"%. c #B42122",
"&. c #B7282A",
"*. c #B62C32",
"=. c #BA2E31",
"-. c #A73737",
";. c #B63B35",
":. c #B73738",
">. c #CC1519",
",. c #C61A1E",
"<. c #DE1E1D",
"1. c #CC1B23",
"2. c #D61C23",
"3. c #D91C29",
"4. c #E11E2F",
"5. c #C2292B",
"6. c #C8272C",
"7. c #D6222D",
"8. c #DC272D",
"9. c #C4302C",
"0. c #C72A31",
"q. c #DB2A30",
"w. c #C93635",
"e. c #D6313A",
"r. c #E32E35",
"t. c #E63437",
"y. c #E6242C",
"u. c #81443B",
"i. c #8A433F",
"p. c #924034",
"a. c #B8473F",
"s. c #973A42",
"d. c #A83B41",
"f. c #BB3C43",
"g. c #C93D40",
"h. c #E23A4B",
"j. c #864845",
"k. c #944947",
"l. c #86524C",
"z. c #8B534C",
"x. c #98524C",
"c. c #8B5753",
"v. c #8B5B53",
"b. c #955A55",
"n. c #965857",
"m. c #A44B48",
"M. c #B74545",
"N. c #A74F54",
"B. c #B94F51",
"V. c #AD5A55",
"C. c #A65252",
"Z. c #9B635C",
"A. c #946259",
"S. c #A66258",
"D. c #B0615C",
"F. c #966A61",
"G. c #A36863",
"H. c #B36963",
"J. c #AD726C",
"K. c #B77A76",
"L. c #BF7F7D",
"P. c #B77873",
"I. c #B1756D",
"U. c #D94647",
"Y. c #C35959",
"T. c #DE5E5C",
"R. c #D35853",
"E. c #E04E51",
"W. c #E15556",
"Q. c #C6635E",
"!. c #D9625E",
"~. c #E6615C",
"^. c #CD6866",
"/. c #D66A6A",
"(. c #C9706C",
"). c #D26D71",
"_. c #C77675",
"`. c #D77C74",
"'. c #EB6F6F",
"]. c #F26063",
"[. c #E47674",
"{. c #EE7175",
"}. c #BB867E",
"|. c #C3827B",
" X c #DB847C",
".X c #FC837B",
"XX c #CF7A81",
"oX c #BB8482",
"OX c #C68482",
"+X c #D58485",
"@X c #CE9287",
"#X c #D49A8E",
"$X c #D29793",
"%X c #CC9B96",
"&X c #E88581",
"*X c #FF8C8F",
"=X c #E39186",
"-X c #E69F99",
";X c #F39895",
":X c #E5AB9F",
">X c #E9A7A6",
",X c #FFAEAC",
"<X c #F5AEA8",
"1X c #E4B3AC",
"2X c #FFB0AF",
"3X c #FBB8B0",
/* pixels */
"* $ 3 i i g j.k.n.l.d g s y z f Q c.n.x.W p g P y y 6 s z z ",
"$ t 3 4 f R j.J c V x.j.v b A n.Z.N v n.v.D s z i y 6 s i i ",
"& q ; y E Q U , , A M.*.E.U.w.;.`.H , B c.c.I t j j l f i e ",
"q # ; s T D s p a S.-.5.8.3.,.9.-.I.Y 2 V v.Q k i i l f i i ",
"# q 3 4 s s s D A.S.=X!.7.3.w..X/.V.:XB 8 a f f r i f f f z ",
"# & 3 4 y 6 6 F +Xm.p.a.2.3.9.;.:.@._.N , f d w r r w w y y ",
"& $ 5 j l 5 3 N M.*...$.r.2.5.[ 5.*.@.P.T y f s w r w w q 3 ",
"t 3 5 5 5 3 ; v f.0.$.&.e.t.X. .6.%.#.J.D z l 0 4 p h r 1 ; ",
"3 $ 3 t t q q V Y.:.( / [ [ ^ ( { o.S.U y k 6 0 W z.a r ; ; ",
"O ; 4 4 3 t q 7 O.`.[.R./ ^ %.W.'.&Xm p x D F c.N.C.m a h w ",
"X , A b 7 w + + - G D.*Xe.] 1.].,Xx.N G.>X+X|.H.-.d.m.b.x i ",
"> < k.n W d s 4 g ~ |.B.h.4.1. .M.`. X(.).;X<Xn d.).V.}.s e ",
"H H H Z 8 W n.OX$XK.|.Q.0.y.<._ w.~.U.g.{.,Xu.M c N M g i e ",
"< = c < - a l.K.OX>Xu.V.T. .' ` ' 6.| 1.&.:.(.3XR w w z i u ",
"% . - - : ; w s x d 7 8 u. X:.) 1.t.>.q.q.,.w.M.#XK g y y L ",
"% % 5 4 ; + & q t t 6 4 : Z &X} | 2.>.8.2.7.X.-.@XU s f y w ",
"3 t y y w q t y $ t i w 4 8 +X^.{ _ _ | ] } -._.v.x w i y 3 ",
"O $ 3 t t 3 w y 3 3 y ; g oXL.2XT.%.&.=.:.Y.-Xl.B s y i y y ",
"O + 3 3 3 3 4 w 3 i i y D 1XL.O.[./.;XH.S C Y x s f z f y y ",
"3 3 q q 3 3 3 3 t q i w d }.P.n +Xk.Z.a p 4 w z P z d s y w ",
"3 3 q q 3 3 3 3 w i f w d F.Z.b +.G.%XD 4 t q $ i y 4 7 h w ",
"$ $ $ $ 3 3 3 3 3 w q i p M z.8 9 J.oXn.f t t k 3 y p s i i ",
"$ $ $ $ 3 3 3 3 w w y ; p a N 8 7 M XX_.G s z y y y f i y i ",
"t t q q t t 3 3 3 ; q w 4 a 8 M p 8 N.s.j.d s f y 4 5 y t $ ",
"3 $ $ $ $ 3 3 3 ; w q ; 4 d M a p B j.C ~ s f f x s 5 t t 3 ",
"3 $ + + + $ 3 3 3 w w 3 3 p 7 , : a N V x f f x g y 3 t t 3 ",
"3 $ + o o + 3 3 3 w w q w w 7 , ; w p g f L f P g y 3 w t q ",
"+ + + + o + 3 3 3 3 q t w y 7 p ; 3 y f x x z f f w 4 w q q ",
"@ o + & $ + + 3 3 3 + 3 t w 4 4 3 $ w 4 d s f i i w 4 y w q ",
"  @ + & & $ + O 3 + o + q w 4 4 3 3 3 4 7 s i e i w 4 y y q "
};
