/* XPM */
static char *cfa9e7ad6d92496bf0f33a837840e0fcrbF9ZmQMVsevs2t9[] = {
/* columns rows colors chars-per-pixel */
"30 30 214 2 ",
"   c #321F19",
".  c #2F2212",
"X  c #322315",
"o  c #3B2513",
"O  c #3B2912",
"+  c #3B271C",
"@  c #362A1B",
"#  c #3D2A1C",
"$  c #37261E",
"%  c #3C321C",
"&  c #3C290B",
"*  c #3B2524",
"=  c #3D2B23",
"-  c #3E3023",
";  c #54330C",
":  c #432C14",
">  c #432C1B",
",  c #482F1C",
"<  c #462813",
"1  c #4B3316",
"2  c #44311D",
"3  c #4C331D",
"4  c #4C391C",
"5  c #443017",
"6  c #543B15",
"7  c #533B1B",
"8  c #5C3E1B",
"9  c #573916",
"0  c #47350F",
"q  c #432D24",
"w  c #4A2E24",
"e  c #432E2B",
"r  c #4C2F2A",
"t  c #453224",
"y  c #4B3324",
"u  c #4D3925",
"i  c #45312A",
"p  c #4C342B",
"a  c #4E392B",
"s  c #513623",
"d  c #533925",
"f  c #51352B",
"g  c #533A2C",
"h  c #5A3C29",
"j  c #442E34",
"k  c #473133",
"l  c #4C3332",
"z  c #4E3931",
"x  c #523532",
"c  c #533B32",
"v  c #593D33",
"b  c #5B421A",
"n  c #5E4910",
"m  c #6A4B1A",
"M  c #734F1D",
"N  c #6C5419",
"B  c #7A5819",
"V  c #5D4324",
"C  c #5C442A",
"Z  c #5B4134",
"A  c #63462A",
"S  c #644B2E",
"D  c #6B4F27",
"F  c #6F5327",
"G  c #73582A",
"H  c #704F30",
"J  c #665337",
"K  c #765A35",
"L  c #634F36",
"P  c #7C6436",
"I  c #796028",
"U  c #695343",
"Y  c #7E634B",
"T  c #74635C",
"R  c #815E24",
"E  c #806923",
"W  c #906E2F",
"Q  c #86653D",
"!  c #916E36",
"~  c #9C7726",
"^  c #8D7C5E",
"/  c #9A7D5A",
"(  c #957E70",
")  c #BE8B00",
"_  c #BD9208",
"`  c #B28716",
"'  c #9E833C",
"]  c #BF9A2F",
"[  c #B8993A",
"{  c #B28A28",
"}  c #C38D04",
"|  c #C59706",
" . c #D19C0E",
".. c #C59913",
"X. c #D39E12",
"o. c #DBA809",
"O. c #CFAB11",
"+. c #CBA618",
"@. c #D5A316",
"#. c #D9A514",
"$. c #DDAC1E",
"%. c #DCAA12",
"&. c #DAB219",
"*. c #CAA50E",
"=. c #E3A90A",
"-. c #E2B214",
";. c #EBB216",
":. c #EEB91D",
">. c #ECB31B",
",. c #C39E29",
"<. c #CBA52A",
"1. c #D3AA24",
"2. c #DBAF22",
"3. c #D1A82A",
"4. c #DBB32D",
"5. c #DBB827",
"6. c #CAAA36",
"7. c #D3AE35",
"8. c #DCB937",
"9. c #E3BA2B",
"0. c #E4B422",
"q. c #F3BE20",
"w. c #E7BE36",
"e. c #EEC12A",
"r. c #ECC73A",
"t. c #F4C736",
"y. c #97844A",
"u. c #B5994A",
"i. c #A58A58",
"p. c #B4985E",
"a. c #AA9252",
"s. c #B5A051",
"d. c #908279",
"f. c #99886A",
"g. c #AE9E60",
"h. c #B49A67",
"j. c #AA9173",
"k. c #BCA56D",
"l. c #C09B43",
"z. c #C9A846",
"x. c #D0B04D",
"c. c #D0AC5E",
"v. c #C9B15A",
"b. c #D3B257",
"n. c #CEA953",
"m. c #E5BC46",
"M. c #D1AD61",
"N. c #D8BA67",
"B. c #C7AA78",
"V. c #C6B279",
"C. c #DDBD74",
"Z. c #E1BC75",
"A. c #EACB46",
"S. c #F5CC48",
"D. c #EFD74F",
"F. c #F8D248",
"G. c #E5C75A",
"H. c #F1CF53",
"J. c #EAD35C",
"K. c #EAD55A",
"L. c #FEDC5A",
"P. c #F7D656",
"I. c #FEE15D",
"U. c #DFC37E",
"Y. c #DAC175",
"T. c #EFCC64",
"R. c #E4C56B",
"E. c #ECD366",
"W. c #F9D660",
"Q. c #FCDD64",
"!. c #FCDD6F",
"~. c #E8CD72",
"^. c #EBD273",
"/. c #EAD477",
"(. c #F6DB77",
"). c #FEE263",
"_. c #FFE36B",
"`. c #FBE469",
"'. c #FDE374",
"]. c #FEE47B",
"[. c #FCE776",
"{. c #BBA797",
"}. c #B3A4A1",
"|. c #CEB28D",
" X c #DABE84",
".X c #C4B8A0",
"XX c #DBC786",
"oX c #E6CB81",
"OX c #E9CD85",
"+X c #E7C986",
"@X c #EDD588",
"#X c #F4DC8E",
"$X c #F9DB86",
"%X c #E6CC93",
"&X c #F2CF95",
"*X c #F5D893",
"=X c #FDEB8D",
"-X c #F8E288",
";X c #FFEB9D",
":X c #FBE397",
">X c #EECDAA",
",X c #F3DEB3",
"<X c #FCE8A7",
"1X c #FFF0AD",
"2X c #FFEFBD",
"3X c #F9E8B3",
"4X c #FEF1B5",
"5X c #E3D2C0",
"6X c #FFEDD4",
"7X c #FFFAD3",
"8X c #FFF4D7",
"9X c #FFFEEB",
"0X c #FFF4E3",
"qX c #F4E9E5",
/* pixels */
"% % t p l l r f w s 3 d c p g v x a p t w f g Z p y t y g Z ",
"% % t p l r w y w > d y w y Y j.v a f w y f w v p y y y y g ",
"i q e p p w w y f p p f w h a.XXC w f g y y y p u u u u u y ",
"i e e p i y y f y v p c f 8 Y.#Xb y g g r r v p a u a a g g ",
"i e e p p y p c c c v g s F ~.*XP 4 s p x x x a g a z z c c ",
"e q e p p y p a z p a d b B.OX1X,XL y a p x p v p a l l l l ",
"q q e i y 2 2 t i a y 1 N OXoX2X6XU i c g g d y y p p p i q ",
"2 q q i t > # # i i p b s.~.OX2X0X}.T z c g h y 3 y a p t q ",
"O t t i q q p p q c t G ~.E./.4X9XqXd.i a g > y p y p y t > ",
"O O > > p + 2 2 , : S k.^.J.^.1X8X9X.XL 4 4 s 3 w p p y t d ",
"u 4 0 6 C V b 6 F P i.#X'.K.~.1X7X7X3XV.y.n 9 8 h s d y d y ",
"5Xf.V.XX%X%XU.oXoX#X#X$X`.K.^.;X4X4X1X:X-X@XOXV.h.i.P K J 7 ",
"{.^ g.v.R.(.[._.].'.].'.).K.E.(.=X=X-X-X(.(.].].(.^.@XXXh.7 ",
"q L y.u.[ 6.8.F.I.L.)._.I.K.E.'.].].'.'.'._.Q.Q.Q.'.~.E 6 7 ",
"# o V B.M.] +.O.9.S.L.I._.Q.J.!.'._.Q.L.F.r.S.P.T.R.m 6 s g ",
"= # > A B.N.6.+.2.5.r.A.L.).W.W.H.w.4.+.&.5.S.G.c.m 8 d f i ",
"t t p t d / Z.z.4.9.w.r.r.t.w.1..._ | *.O.r.b.W 8 d d y y t ",
"# = t t t y Q Z.8.9.9.0.-.%.@.} $.9.5.5.8.6.B 8 h f p y y t ",
"+ + 5 5 t w < M z.4.2.%.o.o.X.}  .t.F.Q.~.R 9 Z v c g d u 4 ",
"e q y 2 + y w ; [ 3.#.o.=.-.#.} } 0.F.].*XG h c v v h d y 3 ",
"e e = t y y > 9 z.1.#.=.=.;.#.) } $.S.!.:XB.3 q a p y 3 y w ",
"* k = + # > > m x.1.%.;.:.;.@._ } @.r.Q.;X3X4 y i y 3 3 f f ",
"q = + q i a y Q 6.+.-.q.:.$.<.` ....5.D.=X<XC y p i y s d y ",
"t t t t t q s p.6.&.e.t.9.7.l.~ { ,.4.A.=X<XC i i i t 3 , > ",
"# > # @ # : 9 C.<.9.F.m.T.c.M ; ! u.z.G.-X<XA x x p q y q > ",
"2 t X @ t & G c.7.P.T.$X XD 3 > 7 K ' N./.:XA v v f q t i q ",
"i = @ @ X : p.b.G.(.&X>XS 3 p e r , 6 I oX@XH h v y t i k j ",
"= $ = =   u  XY.$XOXK Z > t i i * w 3 6 N k./ h d , t p j j ",
"X @ - = * y j.|./ 7 < o 2 y t y > > 3 1 7 S Y U C t y i i i ",
"X . # e p q > 3 y o : > 2 t > 2 , 1 : 4 t y ( {.U y y i i y "
};
