/* XPM */
static char *result[] = {
/* columns rows colors chars-per-pixel */
"30 30 114 2 ",
"   c #382726",
".  c #4C2C26",
"X  c #462C28",
"o  c #51312A",
"O  c #5C342B",
"+  c #62352A",
"@  c #673A2E",
"#  c #6D3A2C",
"$  c #733C2D",
"%  c #7B3E2D",
"&  c #663B30",
"*  c #683D33",
"=  c #733F31",
"-  c #7E412F",
";  c #6B4238",
":  c #744134",
">  c #7B4434",
",  c #724539",
"<  c #7B4638",
"1  c #77483B",
"2  c #7D493A",
"3  c #7F4E40",
"4  c #84422D",
"5  c #8B432D",
"6  c #96462C",
"7  c #9B472C",
"8  c #95482F",
"9  c #9C4A2E",
"0  c #834634",
"q  c #8B4631",
"w  c #854937",
"e  c #8D4A35",
"r  c #844B3B",
"t  c #8C4C39",
"y  c #944B34",
"u  c #9C4D33",
"i  c #934E38",
"p  c #8E513E",
"a  c #9D5036",
"s  c #95523D",
"d  c #9C543B",
"f  c #A14C2F",
"g  c #A34E31",
"h  c #A35236",
"j  c #AB5535",
"k  c #AF5837",
"l  c #A3563A",
"z  c #A95639",
"x  c #A5593E",
"c  c #AC5A3C",
"v  c #B35836",
"b  c #B35D3C",
"n  c #B95E3B",
"m  c #B5603F",
"M  c #BB613E",
"N  c #C1623C",
"B  c #865041",
"V  c #8C5443",
"C  c #8C5748",
"Z  c #87584D",
"A  c #8C5A4D",
"S  c #945542",
"D  c #9A5741",
"F  c #955846",
"G  c #9C5A44",
"H  c #965B4A",
"J  c #9C5D4A",
"K  c #A45B43",
"L  c #AC5E42",
"P  c #A35E48",
"I  c #B15F41",
"U  c #9C6252",
"Y  c #AC6146",
"T  c #A6614A",
"R  c #AC644B",
"E  c #B46244",
"W  c #BA6543",
"Q  c #BF6845",
"!  c #B36549",
"~  c #B96748",
"^  c #B3694E",
"/  c #BB6B4C",
"(  c #A66552",
")  c #A96751",
"_  c #AB6955",
"`  c #AB6E5C",
"'  c #B46B53",
"]  c #BA6E53",
"[  c #B36E59",
"{  c #BC7157",
"}  c #BB735B",
"|  c #AF7262",
" . c #BB7762",
".. c #C16541",
"X. c #C36945",
"o. c #C96B45",
"O. c #C36D4B",
"+. c #C86E49",
"@. c #C6714F",
"#. c #CC724E",
"$. c #D1744F",
"%. c #C57353",
"&. c #CC7653",
"*. c #CD7957",
"=. c #C3765A",
"-. c #C5785B",
";. c #CB7A5A",
":. c #D07752",
">. c #D37853",
",. c #D27D5B",
"<. c #C87D62",
"1. c #C78067",
"2. c #CF856A",
"3. c #D0856B",
/* pixels */
"G ) ` l u A Z B S l D t L $.! H ) n P i l I X.z q l *.,.O.@.",
"D P ] I n P H B l x w t W X.~ ! n b l ! @.X...c y k W +.W :.",
"a h n O.X...L r I ! q t Q O.O.E I P K / ,.O.c K e d b I E ;.",
"z h j o.X.o./ e d D d y s W ! L ( | ` =.P ( K l t i g z } ] ",
"L K ! / b c D V u i L ~ P R c ^ 3.] X.! R Y x P w w i ] &.[ ",
"d K L b j K d D h h L l K O.W O.%.I Q / ! c c / i t a Q W L ",
"u z L k j K I c d I n u K +.] +.n b n O.m b O.+.s d u @.W v ",
"u j @.O.W I n D r l N L c W ! / W Q v W m } 3.R e j g 1.2.b ",
"C h N W n l z u y ..W I W >.&.X.O.M m M M c ~ c Y R R ^ m j ",
"S c Q I G F K K i I L I >.&.&.@.%.^ %.E j W M c x { ! m k k ",
"j W =.W H U ^ R S K l L &.~ W ;.-.{ %.Y z / M c a W M a m m ",
"k b n n n I I L L z b u g j K { ! N M v ~ ..! ~ c f x Y / @.",
"I h [  .k k I z S S g I z c j E -./ M ^  .T c m f m m W +.O.",
"I I ! =.~ b n c D U K K x c l I { / v ~ ^ E E { ! *./ @.@.#.",
"b c z X.O.b z L I [ ~ K L j K R Y / / Q m m Y ' ] %./ / / @.",
"h v I j W W u a W I v I W z e D c K _ T m x g c x T m z x x ",
"y L ^ ` ( T H b c U ( ^ ( T d x G d x c ! / Y Y ! m W Q ^ / ",
"Y R J U a x ! M c K G ! ! x h z x c ~ m / Y h Y ! m M / R ) ",
"I P S S 8 u j h c z f h k h a h m k k m M d z m T ! W ! ) _ ",
"K u u y l u y a c Y d 7 a j z 9 z j a b m z x c K K ] ] _ ) ",
"s S J H 5 8 c h h c b h j P ^ c c Y c l x x d ' R [ { c h E ",
"s s s d a u x a h h z c h x Y c x x m Y ' ) s x T R x d Y ! ",
"G i 8 h h y s t a a h b h f x E l h Y E R ) d y i x d d Y ! ",
"t G y e 5 5 e e i y 7 a j h c x 8 x / a 6 a f u 5 a z a f a ",
"4 8 5 8 i S S J d 6 q u d h l j s w i 6 y 8 s B C T a a 6 6 ",
"$ 5 8 u q e i d P d K d r 0 0 y p p d a y y x p s d a y 4 - ",
"$ % 5 e - q y s G C G G B 2 4 i p G m s e a c a y 8 q - - # ",
"$ # $ $ # s w 2 B ; y d S < r 0 0 a t p p e e g y a - : - % ",
". O $ @ + # # # > $ 0 > - > G > - - # > w e d t y i q - : # ",
"  X O o O o o O + # * O + * > ; ; @ : : : > > 1 : : : O O O "
};
